PathFileType	4	(X/Y/Z)	Patient4_TMGait_0pt4_03_left_40.trc.trc
DataRate	CameraRate	NumFrames	NumMarkers	Units	OrigDataRate	OrigDataStartFrame	OrigNumFrames
74.866310160428	74.866310160428	4	33	mm	74.866310160428	36	       141
Frame#	Time	Sacral			L.Shoulder			Chest			R.Shoulder			Neck			R.ASIS			L.ASIS			R.Thigh.Superior			R.Thigh.Lateral			R.Thigh.Inferior			R.Patella			L.Thigh.Superior			L.Thigh.Lateral			L.Thigh.Inferior			L.Patella			L.Shank.Superior			L.Shank.Lateral			L.Shank.Inferior			R.Shank.Superior			R.Shank.Lateral			R.Shank.Inferior			R.Heel			R.Midfoot.Superior			R.Midfoot.Lateral			R.Toe			L.Heel			L.Midfoot.Lateral			L.Midfoot.Superior			L.Toe			L.Elbow			L.Wrist			R.Elbow			R.Wrist			
		X1	Y1	Z1	X2	Y2	Z2	X3	Y3	Z3	X4	Y4	Z4	X5	Y5	Z5	X6	Y6	Z6	X7	Y7	Z7	X8	Y8	Z8	X9	Y9	Z9	X10	Y10	Z10	X11	Y11	Z11	X12	Y12	Z12	X13	Y13	Z13	X14	Y14	Z14	X15	Y15	Z15	X16	Y16	Z16	X17	Y17	Z17	X18	Y18	Z18	X19	Y19	Z19	X20	Y20	Z20	X21	Y21	Z21	X22	Y22	Z22	X23	Y23	Z23	X24	Y24	Z24	X25	Y25	Z25	X26	Y26	Z26	X27	Y27	Z27	X28	Y28	Z28	X29	Y29	Z29	X30	Y30	Z30	X31	Y31	Z31	X32	Y32	Z32	X33	Y33	Z33	

36	53.437500000000	919.829652336750	1002.117282055063	491.101739732550	1074.030788654195	1423.407277215336	286.323782658953	1198.488274577914	1357.743521485590	432.813573043051	1141.788747981165	1436.509032316523	614.349497200736	1081.854778221362	1490.415436938095	441.526329861858	1156.719794123021	934.483524256394	582.587261637610	1116.895346610005	958.208898079184	311.026614908449	1166.447690703839	722.735276793258	560.353235133278	1077.522780706850	624.820969337784	635.587303828631	1140.940109385297	557.901729441104	556.431647014101	1128.228222189741	460.121738958191	574.560190281930	1191.330552612063	763.838607648086	339.496743225556	1120.321005185522	636.456477994175	278.510867171314	1220.138373929597	571.763115071630	334.736698217333	1230.649379472850	500.948098727170	340.953566247811	1208.445084693897	426.561655114762	333.000448178866	1124.938429259045	307.066140660660	281.835449755576	1188.045985169815	197.681187191133	347.325944270288	1067.126976194719	385.963475948105	586.258257202450	966.025675374430	318.664742283430	658.192647112868	968.482702992406	211.301207543227	602.405754532123	787.880954711636	85.453259525390	588.186001399286	965.980074216271	102.587978310002	618.319926103320	869.760263340792	58.827102126596	659.619836546733	1073.316821184860	37.486635323448	643.337247679854	1071.508950805069	38.993519000450	389.846261835133	1143.923824890350	36.405008958260	307.784076821284	1227.126703413617	98.001399069106	334.209060545861	1354.968484333096	47.933193867983	302.783319813656	985.530344713256	1073.303165596267	200.621763615368	1021.518038914723	815.480169905419	186.426546633179	1259.997850459709	1113.894683021597	724.540846990900	1462.913140713539	1210.648969580784	620.178391702197	
37	53.450857142857	920.555677727927	1002.675520516633	486.954503907494	1075.724856873853	1423.892150254099	282.318548142677	1199.370117471927	1358.488419409011	429.566185027216	1141.657000423907	1437.607119093199	610.615553037175	1082.718795256849	1491.020909306797	437.433384814297	1156.977926334374	935.343244375977	579.783382761211	1118.739181338403	958.598035962560	308.032028849224	1170.464334081135	724.210096909677	558.164351794499	1083.484397751923	625.042347541701	633.458934611138	1148.994013871985	558.734195720354	554.897689469199	1137.286110073581	459.389746521136	574.512376182522	1192.215101405941	763.445643842612	336.107748800325	1119.609768102353	636.320075212329	276.300310592773	1219.013004431731	570.989392070509	332.214286395026	1228.980150270781	500.330553094149	339.131118801811	1206.266908875581	425.937899616263	331.555454256801	1121.970318791614	306.904691866866	280.580668895388	1183.835680395874	197.268032089220	346.766813508725	1073.761179442533	386.353154816957	585.963651367923	969.965955475578	322.655667969565	657.289232752457	970.255850235686	214.637165515383	602.676256091638	786.045615127813	94.975842060841	588.360047340661	964.524339436124	104.430070398801	618.700181005782	866.563869694578	64.641284984188	659.688448789703	1068.261275127035	36.803487957996	643.270675533093	1066.147219826890	38.985039565229	389.723791646859	1138.560771217847	36.349642393291	307.656503538865	1221.778496468176	97.915044508443	334.091597331003	1349.673459878739	47.784818030008	302.664962888493	991.673291735639	1072.638031807375	195.225009619457	1036.152537328800	815.963580360612	181.453010246256	1255.069285074881	1112.958760943511	721.767779653266	1464.001689679777	1197.117562901537	617.569890546520	
38	53.464214285714	921.108893507355	1003.209288728369	482.797833741288	1077.556248911278	1424.326547427254	278.299361883838	1200.175924341835	1359.222420155174	426.485286821094	1141.194368947604	1438.681316724857	606.968857338454	1083.471433339533	1491.593467162722	433.338079397320	1157.062818949793	936.177389326317	577.255802721157	1120.578609220187	958.906281757636	305.293878114688	1174.896398544848	725.929540362710	556.244181051922	1089.949664177764	625.364817483733	631.444767840236	1157.714932443600	559.823626302651	553.519725387378	1146.981855899078	458.986937827804	574.411014055977	1192.725552387555	762.784454742592	332.919828251296	1118.620369178389	636.172298688462	274.077657227289	1217.446364943788	570.143874076061	329.898756366923	1226.844012530803	499.640456373014	337.325264585825	1203.658133378377	425.280066032836	330.080229762554	1118.647931215897	306.636959311117	279.356836069702	1179.456919476248	196.840557937420	346.187461476218	1081.128905177498	386.995280130262	585.631460414117	974.711031952212	327.082008072823	656.332643220664	972.705005082180	218.475758738296	602.899582820151	784.978410086550	105.638962160932	588.421616695027	963.518034385182	106.768620591032	618.987657172484	863.823213633994	71.437447303879	659.679725130925	1063.225001538628	36.037073867828	643.211730015602	1060.729495528992	38.964691347705	389.616010204120	1133.139998797314	36.253796842980	307.543046393499	1216.392852531450	97.772926353333	333.970212120528	1344.329613804403	47.532417059273	302.559690943540	997.966141298490	1072.041209874061	189.732907349048	1051.104277145683	816.824416810977	176.523080062531	1249.637730782931	1112.029590630541	719.038404459489	1464.463394112643	1182.335080509135	615.378532130444	
39	53.477571428571	921.488978498432	1003.707764048309	478.697557805733	1079.522231950437	1424.683714723720	274.306748106143	1200.921522283459	1359.906248803422	423.590260467837	1140.459746421222	1439.702062217827	603.437341750080	1084.138631546475	1492.121849743264	429.274730329034	1156.979629669216	936.962382298198	574.977551441003	1122.345289018990	959.155441210469	302.790906485377	1179.658864554528	727.912361640804	554.540618046930	1096.843514384051	625.831494101543	629.538399837496	1166.969783381589	561.212976487004	552.280457212108	1157.205033008930	458.972543990803	574.207145369751	1192.877945603983	761.955479894402	329.972287731252	1117.423312633977	636.054385934092	271.849702095386	1215.508991894832	569.275566269527	327.794018118397	1224.299742431444	498.907984339117	335.556343309895	1200.687194506775	424.612406540275	328.593823634984	1115.042774881910	306.297506920847	278.153125930210	1174.951781821342	196.417560903376	345.592281509989	1089.139087280219	387.921725628439	585.214282424643	980.230485554927	331.915348723225	655.304224450926	975.799695028980	222.815851212932	603.028866882432	784.743635773111	117.351623524363	588.332416780527	962.978109890164	109.687435255439	619.156238034021	861.616630747908	79.212065422110	659.563412310421	1058.288647678519	35.200955034104	643.165279663892	1055.288445095671	38.942975943493	389.514783072124	1127.694462482486	36.136214178446	307.435756467383	1210.996489849108	97.595522310877	333.842618537936	1338.963000787056	47.213158177344	302.464268765699	1004.485734092531	1071.482894661309	184.157760969200	1066.312470674876	818.024800088261	171.660678550243	1243.722495398934	1111.061423870300	716.360465048578	1464.083673943470	1166.404114400834	613.692477058224	
